<svg width="13" height="13" viewBox="0 0 13 13" fill="none" xmlns="http://www.w3.org/2000/svg">
<path d="M12.7138 9.04357L8.94763 1.51137C8.48157 0.579018 7.54448 0 6.50233 0C5.46019 0 4.5231 0.579018 4.05704 1.51137L0.291053 9.04357C-0.135699 9.8973 -0.090968 10.8915 0.410787 11.7035C0.912542 12.5154 1.78186 13 2.73635 13H10.2685C11.223 13 12.0924 12.5152 12.5941 11.7035C13.0959 10.8915 13.1406 9.8973 12.7138 9.04357ZM10.2685 11.6447H2.73635C1.7116 11.6447 1.04515 10.5665 1.50353 9.64992L5.26952 2.11749C5.52345 1.60941 6.013 1.35548 6.50233 1.35548C6.99166 1.35548 7.48122 1.60941 7.73515 2.11749L11.5011 9.64969C11.9593 10.5662 11.2928 11.6445 10.2683 11.6445L10.2685 11.6447Z" fill="#FF5A2E"/>
<path d="M6.48414 8.18351C6.85848 8.18351 7.16188 7.8801 7.16188 7.50576V4.30253C7.16188 3.92819 6.85848 3.62479 6.48414 3.62479C6.1098 3.62479 5.8064 3.92819 5.8064 4.30253V7.50576C5.8064 7.8801 6.1098 8.18351 6.48414 8.18351Z" fill="#FF5A2E"/>
<path d="M6.50293 10.7488C7.02434 10.7488 7.44703 10.3261 7.44703 9.80466C7.44703 9.28325 7.02434 8.86057 6.50293 8.86057C5.98152 8.86057 5.55884 9.28325 5.55884 9.80466C5.55884 10.3261 5.98152 10.7488 6.50293 10.7488Z" fill="#FF5A2E"/>
</svg>
