<svg width="20" height="21" viewBox="0 0 20 21" fill="none" xmlns="http://www.w3.org/2000/svg">
<path d="M17.53 4.47932H16.0047V1.54089C16.0047 0.965972 15.5387 0.5 14.9638 0.5C14.3889 0.5 13.9229 0.965972 13.9229 1.54089V4.47932H6.01218V1.54089C6.01218 0.965972 5.54621 0.5 4.97129 0.5C4.39637 0.5 3.9304 0.965972 3.9304 1.54089V4.47932H2.42874C1.08946 4.47932 0 5.56879 0 6.90806V18.0713C0 19.4105 1.08946 20.5 2.42874 20.5H17.53C18.8692 20.5 19.9587 19.4105 19.9587 18.0713V6.90806C19.9587 5.56879 18.8692 4.47932 17.53 4.47932ZM2.42874 6.5611H17.53C17.7211 6.5611 17.8769 6.71689 17.8769 6.90806V8.80387H2.08178V6.90806C2.08178 6.71689 2.23757 6.5611 2.42874 6.5611ZM17.53 18.4182H2.42874C2.23757 18.4182 2.08178 18.2624 2.08178 18.0713V10.8856H17.8769V18.0713C17.8769 18.2624 17.7211 18.4182 17.53 18.4182Z" fill="#005BFE"/>
</svg>
