<svg width="31" height="30" viewBox="0 0 31 30" fill="none" xmlns="http://www.w3.org/2000/svg">
<path d="M2.05248 15.0038C2.44185 15.0038 2.83225 14.8591 3.1352 14.5676L8.6602 9.25134H24.9661L21.8793 12.3381C21.2692 12.9477 21.2692 13.9367 21.8793 14.5468C22.1843 14.8518 22.5836 15.0043 22.9833 15.0043C23.3831 15.0043 23.7829 14.8518 24.0874 14.5468L30.0278 8.60639C30.3209 8.31333 30.4853 7.91616 30.4853 7.50233C30.4853 7.0885 30.3209 6.69081 30.0278 6.39827L24.0879 0.457358C23.4779 -0.152192 22.4894 -0.152713 21.8793 0.457358C21.2692 1.06743 21.2692 2.05593 21.8793 2.666L25.3414 6.12811H8.03087C7.62693 6.12811 7.23913 6.28427 6.94815 6.56432L0.969762 12.3168C0.348239 12.9149 0.3295 13.9034 0.927078 14.5249C1.23368 14.8435 1.64282 15.0038 2.05248 15.0038Z" fill="#005BFE"/>
<path d="M30.0191 15.4218C29.3918 14.8299 28.4033 14.8586 27.8114 15.4858L22.845 20.7484H6.03368L9.12047 17.6617C9.73054 17.0516 9.73054 16.0631 9.12047 15.453C8.5104 14.8429 7.5219 14.8429 6.91182 15.453L0.971958 21.3934C0.361886 22.0035 0.361886 22.992 0.971958 23.602L6.91234 29.5424C7.21738 29.8475 7.61663 30 8.01641 30C8.41618 30 8.81595 29.8475 9.12047 29.5424C9.73054 28.9329 9.73054 27.9438 9.12047 27.3338L5.65837 23.8717H23.5186C23.9485 23.8717 24.3592 23.6947 24.6544 23.3819L30.0831 17.6294C30.6749 17.0021 30.6463 16.0136 30.0191 15.4218Z" fill="#005BFE"/>
</svg>
