<svg width="26" height="24" viewBox="0 0 26 24" fill="none" xmlns="http://www.w3.org/2000/svg">
<path d="M11.9893 1.5L1.98926 21L3.48926 23L22.4893 22.5L23.9893 21.5L13.4893 1L11.9893 1.5Z" fill="#00E0E8"/>
<path d="M24.6885 19.625L15.7025 1.67013C15.1875 0.640153 14.1518 0 13.0005 0C11.8492 0 10.8134 0.640153 10.2975 1.67013L1.31147 19.625C0.83948 20.569 0.888208 21.6677 1.44333 22.5659C1.99749 23.464 2.95963 24 4.01445 24H21.9855C23.0413 24 24.0025 23.464 24.5567 22.5659C25.1118 21.6677 25.1605 20.569 24.6885 19.625ZM22.6066 21.361C22.5426 21.4652 22.3534 21.7069 21.9865 21.7069H4.01445C3.64755 21.7069 3.45837 21.4652 3.39436 21.361C3.33034 21.2569 3.19849 20.9798 3.36283 20.6511L12.3479 2.69629C12.5294 2.33321 12.8648 2.29308 13.0005 2.29308C13.1361 2.29308 13.4706 2.33226 13.653 2.69629L22.6381 20.6521C22.8025 20.9808 22.6706 21.2569 22.6066 21.361Z" fill="#04132C"/>
<path d="M13.0098 16.1519C13.6433 16.1519 14.1564 15.6388 14.1564 15.0053V6.58111C14.1564 5.94765 13.6433 5.43457 13.0098 5.43457C12.3764 5.43457 11.8633 5.94765 11.8633 6.58111V15.0053C11.8633 15.6388 12.3764 16.1519 13.0098 16.1519Z" fill="#04132C"/>
<path d="M13.0004 16.6406C12.2542 16.6406 11.6494 17.2454 11.6494 17.9916C11.6494 18.7378 12.2542 19.3426 13.0004 19.3426C13.7466 19.3426 14.3514 18.7378 14.3514 17.9916C14.3514 17.2454 13.7466 16.6406 13.0004 16.6406Z" fill="#04132C"/>
</svg>
