<svg width="26" height="25" viewBox="0 0 26 25" fill="none" xmlns="http://www.w3.org/2000/svg">
<path d="M11.9893 2L1.98926 21.5L3.48926 23.5L22.4893 23L23.9893 22L13.4893 1.5L11.9893 2Z" fill="#FF5A2E"/>
<path d="M24.6885 20.125L15.7025 2.17013C15.1875 1.14015 14.1518 0.5 13.0005 0.5C11.8492 0.5 10.8134 1.14015 10.2975 2.17013L1.31147 20.125C0.83948 21.069 0.888208 22.1677 1.44333 23.0659C1.99749 23.964 2.95963 24.5 4.01445 24.5H21.9855C23.0413 24.5 24.0025 23.964 24.5567 23.0659C25.1118 22.1677 25.1605 21.069 24.6885 20.125ZM22.6066 21.861C22.5426 21.9652 22.3534 22.2069 21.9865 22.2069H4.01445C3.64755 22.2069 3.45837 21.9652 3.39436 21.861C3.33034 21.7569 3.19849 21.4798 3.36283 21.1511L12.3479 3.19629C12.5294 2.83321 12.8648 2.79308 13.0005 2.79308C13.1361 2.79308 13.4706 2.83226 13.653 3.19629L22.6381 21.1521C22.8025 21.4808 22.6706 21.7569 22.6066 21.861Z" fill="#04132C"/>
<path d="M13.0098 16.6519C13.6433 16.6519 14.1564 16.1388 14.1564 15.5053V7.08111C14.1564 6.44765 13.6433 5.93457 13.0098 5.93457C12.3764 5.93457 11.8633 6.44765 11.8633 7.08111V15.5053C11.8633 16.1388 12.3764 16.6519 13.0098 16.6519Z" fill="#04132C"/>
<path d="M13.0004 17.1406C12.2542 17.1406 11.6494 17.7454 11.6494 18.4916C11.6494 19.2378 12.2542 19.8426 13.0004 19.8426C13.7466 19.8426 14.3514 19.2378 14.3514 18.4916C14.3514 17.7454 13.7466 17.1406 13.0004 17.1406Z" fill="#04132C"/>
</svg>
