<svg width="24" height="25" viewBox="0 0 24 25" fill="none" xmlns="http://www.w3.org/2000/svg">
<circle cx="11.9895" cy="12.4895" r="11.1262" fill="#00E0E8"/>
<path d="M12 24.5C5.38278 24.5 0 19.1172 0 12.5C0 5.88278 5.38278 0.5 12 0.5C18.6172 0.5 24 5.88278 24 12.5C24 19.1172 18.6172 24.5 12 24.5ZM12 2.80197C6.65271 2.80197 2.30197 7.15271 2.30197 12.5C2.30197 17.8473 6.65271 22.198 12 22.198C17.3473 22.198 21.698 17.8473 21.698 12.5C21.698 7.15271 17.3473 2.80197 12 2.80197Z" fill="#04132C"/>
<path d="M9.94719 16.8596C9.65273 16.8596 9.35827 16.7474 9.13287 16.523L6.82322 14.2133C6.37338 13.7635 6.37338 13.0355 6.82322 12.5856C7.27307 12.1358 8.00107 12.1358 8.45091 12.5856L9.94719 14.0819L15.5496 8.47947C15.9995 8.02963 16.7284 8.02963 17.1773 8.47947C17.6262 8.92932 17.6272 9.65732 17.1773 10.1072L10.7615 16.523C10.5371 16.7474 10.2426 16.8596 9.94719 16.8596Z" fill="#04132C"/>
</svg>
