<svg width="14" height="14" viewBox="0 0 14 14" fill="none" xmlns="http://www.w3.org/2000/svg">
<path d="M13.8183 11.4479L8.5765 0.974243C8.27609 0.373423 7.67192 0 7.00032 0C6.32871 0 5.72455 0.373423 5.42358 0.974243L0.181734 11.4479C-0.0935959 11.9986 -0.0651712 12.6395 0.258647 13.1634C0.581909 13.6873 1.14316 14 1.75847 14H12.2416C12.8575 14 13.4182 13.6873 13.7414 13.1634C14.0652 12.6395 14.0937 11.9986 13.8183 11.4479ZM12.6039 12.4606C12.5665 12.5214 12.4562 12.6624 12.2422 12.6624H1.75847C1.54445 12.6624 1.43409 12.5214 1.39675 12.4606C1.35941 12.3999 1.28249 12.2382 1.37836 12.0465L6.61965 1.57283C6.72554 1.36104 6.92117 1.33763 7.00032 1.33763C7.07946 1.33763 7.27453 1.36048 7.38099 1.57283L12.6223 12.0471C12.7181 12.2388 12.6412 12.4004 12.6039 12.4612V12.4606Z" fill="#04132C"/>
<path d="M7.00597 9.42168C7.3755 9.42168 7.67479 9.12239 7.67479 8.75287V3.83874C7.67479 3.46922 7.3755 3.16992 7.00597 3.16992C6.63645 3.16992 6.33716 3.46922 6.33716 3.83874V8.75287C6.33716 9.12239 6.63645 9.42168 7.00597 9.42168Z" fill="#04132C"/>
<path d="M7.00037 9.70752C6.56508 9.70752 6.21228 10.0603 6.21228 10.4956C6.21228 10.9309 6.56508 11.2837 7.00037 11.2837C7.43566 11.2837 7.78846 10.9309 7.78846 10.4956C7.78846 10.0603 7.43566 9.70752 7.00037 9.70752Z" fill="#04132C"/>
</svg>
