<svg width="16" height="17" viewBox="0 0 16 17" fill="none" xmlns="http://www.w3.org/2000/svg">
<path d="M8 16.4994C3.58845 16.4994 0 12.9109 0 8.5C0 4.08909 3.58845 0.5 8 0.5C12.4115 0.5 16 4.08845 16 8.5C16 12.9115 12.4115 16.5 8 16.5V16.4994ZM8 2.03134C4.43324 2.03134 1.53134 4.93324 1.53134 8.5C1.53134 12.0668 4.43324 14.9687 8 14.9687C11.5668 14.9687 14.4687 12.0668 14.4687 8.5C14.4687 4.93324 11.5661 2.03134 8 2.03134Z" fill="#04132C"/>
<path d="M7.99989 13.0737C5.47763 13.0737 3.42627 11.0216 3.42627 8.50004C3.42627 5.97842 5.47763 3.92578 7.99989 3.92578C10.5221 3.92578 12.5735 5.97778 12.5735 8.4994C12.5735 11.021 10.5215 13.073 7.99989 13.073V13.0737ZM7.99989 5.45713C6.32242 5.45713 4.95761 6.82194 4.95761 8.4994C4.95761 10.1769 6.32242 11.5417 7.99989 11.5417C9.67735 11.5417 11.0422 10.1769 11.0422 8.4994C11.0422 6.82194 9.67735 5.45713 7.99989 5.45713Z" fill="#04132C"/>
</svg>
