<svg width="24" height="24" viewBox="0 0 24 24" fill="none" xmlns="http://www.w3.org/2000/svg">
<circle cx="11.9574" cy="11.9576" r="10.7286" fill="#FF5A2E"/>
<path d="M12 24C5.38322 24 0 18.6168 0 12C0 5.38322 5.38322 0 12 0C18.6168 0 24 5.38322 24 12C24 18.6168 18.6168 24 12 24ZM12 2.26861C6.63379 2.26861 2.26861 6.63379 2.26861 12C2.26861 17.3662 6.63379 21.7314 12 21.7314C17.3662 21.7314 21.7314 17.3662 21.7314 12C21.7314 6.63379 17.3662 2.26861 12 2.26861Z" fill="#04132C"/>
<path d="M13.604 12.0001L17.1988 8.40534C17.6421 7.96202 17.6421 7.24457 17.1988 6.80124C16.7555 6.35792 16.038 6.35792 15.5947 6.80124L11.9999 10.396L8.4051 6.80124C7.96177 6.35792 7.24432 6.35792 6.801 6.80124C6.35767 7.24457 6.35767 7.96202 6.801 8.40534L10.3958 12.0001L6.801 15.5949C6.35767 16.0383 6.35767 16.7557 6.801 17.199C7.02219 17.4202 7.31238 17.5308 7.60352 17.5308C7.89466 17.5308 8.18391 17.4202 8.40604 17.199L12.0008 13.6042L15.5956 17.199C15.8168 17.4202 16.107 17.5308 16.3982 17.5308C16.6893 17.5308 16.9786 17.4202 17.2007 17.199C17.644 16.7557 17.644 16.0383 17.2007 15.5949L13.6059 12.0001H13.604Z" fill="#04132C"/>
</svg>
