<svg width="16" height="17" viewBox="0 0 16 17" fill="none" xmlns="http://www.w3.org/2000/svg">
<path d="M5.08202 4.41697H12.1261C12.5365 4.41697 12.8688 4.08397 12.8688 3.67284C12.8688 3.26171 12.5365 2.92871 12.1261 2.92871H5.08202C4.6717 2.92871 4.33936 3.26171 4.33936 3.67284C4.33936 4.08397 4.6717 4.41697 5.08202 4.41697Z" fill="#04132C"/>
<path d="M14.048 6.84555H15.2573C15.6677 6.84555 16 6.51256 16 6.10143C16 5.6903 15.6677 5.3573 15.2573 5.3573H15.1769V1.98826H15.2573C15.6677 1.98826 16 1.65526 16 1.24413C16 0.832997 15.6677 0.5 15.2573 0.5H4.37551C2.62964 0.5 1.2093 1.92315 1.2093 3.67309C1.2093 4.41039 1.46242 5.08879 1.8845 5.62828C0.775461 6.11755 0 7.22196 0 8.5031C0 9.78424 0.773605 10.8862 1.88079 11.3767C1.46057 11.9149 1.2093 12.5921 1.2093 13.3269C1.2093 15.0762 2.62964 16.5 4.37613 16.5H15.2573C15.6677 16.5 16 16.167 16 15.7559C16 15.3447 15.6677 15.0117 15.2573 15.0117H15.1769V11.6427H15.2573C15.6677 11.6427 16 11.3097 16 10.8986C16 10.4874 15.6677 10.1544 15.2573 10.1544H13.9682V6.84555H14.0487H14.048ZM4.37551 1.98826H13.6916V5.3573H4.37551C3.44842 5.3573 2.694 4.60139 2.694 3.67247C2.694 2.74355 3.44842 1.98764 4.37551 1.98764V1.98826ZM4.37551 15.0117C3.44842 15.0117 2.694 14.2558 2.694 13.3269C2.694 12.398 3.37415 11.7196 4.23688 11.6483H13.6916V15.0111H4.37551V15.0117ZM12.4823 10.1544H4.37551C4.31176 10.1544 4.24864 10.1569 4.18613 10.1606H3.16621C2.23912 10.1606 1.4847 9.41714 1.4847 8.5031C1.4847 7.58906 2.23912 6.84555 3.16621 6.84555H12.4829V10.1544H12.4823Z" fill="#04132C"/>
<path d="M2.37988 8.50048C2.37988 8.91161 2.71222 9.2446 3.12254 9.2446H10.9533C11.3636 9.2446 11.6959 8.91161 11.6959 8.50048C11.6959 8.08935 11.3636 7.75635 10.9533 7.75635H3.12254C2.71222 7.75635 2.37988 8.08935 2.37988 8.50048Z" fill="#04132C"/>
<path d="M12.5197 12.5952H4.68895C4.27863 12.5952 3.94629 12.9282 3.94629 13.3393C3.94629 13.7505 4.27863 14.0835 4.68895 14.0835H12.5197C12.93 14.0835 13.2623 13.7505 13.2623 13.3393C13.2623 12.9282 12.93 12.5952 12.5197 12.5952Z" fill="#04132C"/>
</svg>
