<svg width="10" height="10" viewBox="0 0 10 10" fill="none" xmlns="http://www.w3.org/2000/svg">
<path d="M4.99999 2.14111C3.42358 2.14111 2.14148 3.42361 2.14148 4.99962C2.14148 6.57563 3.42398 7.85813 4.99999 7.85813C6.576 7.85813 7.8585 6.57563 7.8585 4.99962C7.8585 3.42361 6.576 2.14111 4.99999 2.14111ZM4.99999 6.90144C3.95158 6.90144 3.09857 6.04844 3.09857 5.00002C3.09857 3.95161 3.95158 3.0986 4.99999 3.0986C6.0484 3.0986 6.90141 3.95161 6.90141 5.00002C6.90141 6.04844 6.0484 6.90144 4.99999 6.90144Z" fill="#818995"/>
<path d="M9.52106 9.04251H7.93787C9.18647 8.13248 9.9996 6.65936 9.9996 4.9996C9.9996 2.24278 7.75682 0 5 0C2.24318 0 0 2.24278 0 5C0 6.65975 0.813128 8.13288 2.06173 9.04291H0.478545C0.214149 9.04291 0 9.25706 0 9.52145C0 9.78585 0.214149 10 0.478545 10H9.52106C9.78545 10 9.9996 9.78585 9.9996 9.52145C9.9996 9.25706 9.78545 9.04291 9.52106 9.04291V9.04251ZM0.95709 5C0.95709 2.77078 2.77078 0.95709 5 0.95709C7.22922 0.95709 9.04291 2.77078 9.04291 5C9.04291 7.22922 7.22922 9.04291 5 9.04291C2.77078 9.04291 0.95709 7.22882 0.95709 5Z" fill="#818995"/>
</svg>
