<svg width="11" height="10" viewBox="0 0 11 10" fill="none" xmlns="http://www.w3.org/2000/svg">
<path d="M5.00538 2.99123C4.18089 2.99123 3.50977 2.32051 3.50977 1.49562C3.50977 0.670724 4.18049 0 5.00538 0C5.83027 0 6.501 0.670724 6.501 1.49562C6.501 2.32051 5.83027 2.99123 5.00538 2.99123ZM5.00538 0.961038C4.71066 0.961038 4.4708 1.2009 4.4708 1.49562C4.4708 1.79033 4.71066 2.03019 5.00538 2.03019C5.3001 2.03019 5.53996 1.79033 5.53996 1.49562C5.53996 1.2009 5.3001 0.961038 5.00538 0.961038Z" fill="#818995"/>
<path d="M6.60073 4.45664H3.41008C3.1446 4.45664 2.92957 4.24161 2.92957 3.97612C2.92957 3.71064 3.1446 3.49561 3.41008 3.49561H6.60113C6.86662 3.49561 7.08165 3.71064 7.08165 3.97612C7.08165 4.24161 6.86662 4.45664 6.60113 4.45664H6.60073Z" fill="#818995"/>
<path d="M2.07582 8.53518C1.25133 8.53518 0.5802 7.86445 0.5802 7.03956C0.5802 6.21467 1.25092 5.54395 2.07582 5.54395C2.90071 5.54395 3.57143 6.21467 3.57143 7.03956C3.57143 7.86445 2.90071 8.53518 2.07582 8.53518ZM2.07582 6.50498C1.7811 6.50498 1.54124 6.74484 1.54124 7.03956C1.54124 7.33428 1.7811 7.57414 2.07582 7.57414C2.37053 7.57414 2.61039 7.33428 2.61039 7.03956C2.61039 6.74484 2.37053 6.50498 2.07582 6.50498Z" fill="#818995"/>
<path d="M3.67157 10.0001H0.480519C0.215032 10.0001 0 9.78507 0 9.51958C0 9.25409 0.215032 9.03906 0.480519 9.03906H3.67157C3.93705 9.03906 4.15208 9.25409 4.15208 9.51958C4.15208 9.78507 3.93705 10.0001 3.67157 10.0001Z" fill="#818995"/>
<path d="M7.96021 8.53518C7.13572 8.53518 6.4646 7.86445 6.4646 7.03956C6.4646 6.21467 7.13532 5.54395 7.96021 5.54395C8.78511 5.54395 9.45583 6.21467 9.45583 7.03956C9.45583 7.86445 8.78511 8.53518 7.96021 8.53518ZM7.96021 6.50498C7.6655 6.50498 7.42564 6.74484 7.42564 7.03956C7.42564 7.33428 7.6655 7.57414 7.96021 7.57414C8.25493 7.57414 8.49479 7.33428 8.49479 7.03956C8.49479 6.74484 8.25493 6.50498 7.96021 6.50498Z" fill="#818995"/>
<path d="M9.55548 10.0001H6.36443C6.09894 10.0001 5.88391 9.78507 5.88391 9.51958C5.88391 9.25409 6.09894 9.03906 6.36443 9.03906H9.55548C9.82096 9.03906 10.036 9.25409 10.036 9.51958C10.036 9.78507 9.82096 10.0001 9.55548 10.0001Z" fill="#818995"/>
</svg>
