<svg width="24" height="24" viewBox="0 0 24 24" fill="none" xmlns="http://www.w3.org/2000/svg">
<g clip-path="url(#clip0_1_7424)">
<path d="M1.14586 8.1566C1.77894 8.1566 2.29172 7.64383 2.29172 7.01074V3.87491L5.18692 6.77011C5.41036 6.99356 5.70351 7.10528 5.99761 7.10528C6.29172 7.10528 6.58391 6.99356 6.80831 6.77011C7.25615 6.32227 7.25615 5.59752 6.80831 5.14968L3.95035 2.29172H7.0117C7.64478 2.29172 8.15756 1.77894 8.15756 1.14586C8.15756 0.512772 7.64287 0 7.01074 0H1.14586C0.512772 0 0 0.512772 0 1.14586V7.01074C0 7.64383 0.512772 8.1566 1.14586 8.1566Z" fill="#04132C"/>
<path d="M22.8541 15.8433C22.221 15.8433 21.7083 16.356 21.7083 16.9891V20.125L18.8131 17.2298C18.3652 16.7819 17.6395 16.7819 17.1926 17.2298C16.7457 17.6776 16.7448 18.4023 17.1926 18.8502L20.0506 21.7081H16.9892C16.3562 21.7081 15.8434 22.2209 15.8434 22.854C15.8434 23.4871 16.3562 23.9999 16.9892 23.9999H22.8541C23.4872 23.9999 24 23.4871 24 22.854V16.9891C24 16.356 23.4872 15.8433 22.8541 15.8433Z" fill="#04132C"/>
<path d="M22.8541 0H16.9892C16.3562 0 15.8434 0.512772 15.8434 1.14586C15.8434 1.77894 16.3562 2.29172 16.9892 2.29172H20.1251L17.2299 5.18692C16.782 5.63476 16.782 6.35951 17.2299 6.80735C17.4533 7.0308 17.7465 7.14252 18.0406 7.14252C18.3347 7.14252 18.6269 7.0308 18.8513 6.80735L21.7092 3.94939V7.01074C21.7092 7.64383 22.222 8.1566 22.8551 8.1566C23.4882 8.1566 24.0009 7.64383 24.0009 7.01074V1.14586C24.0009 0.512772 23.4882 0 22.8551 0H22.8541Z" fill="#04132C"/>
<path d="M7.01074 21.7081H3.87491L6.77011 18.8129C7.21795 18.3651 7.21795 17.6403 6.77011 17.1925C6.32227 16.7447 5.59752 16.7447 5.14968 17.1925L2.29172 20.0505V16.9891C2.29172 16.356 1.77894 15.8433 1.14586 15.8433C0.512772 15.8433 0 16.356 0 16.9891V22.854C0 23.4871 0.512772 23.9999 1.14586 23.9999H7.01074C7.64383 23.9999 8.1566 23.4871 8.1566 22.854C8.1566 22.2209 7.64383 21.7081 7.01074 21.7081Z" fill="#04132C"/>
<path d="M11.9122 7.20459C9.23658 7.20459 7.05945 9.38172 7.05945 12.0573C7.05945 14.7329 9.23658 16.91 11.9122 16.91C14.5877 16.91 16.7649 14.7329 16.7649 12.0573C16.7649 9.38172 14.5877 7.20459 11.9122 7.20459ZM11.9122 14.6183C10.4999 14.6183 9.35116 13.4696 9.35116 12.0573C9.35116 10.645 10.4999 9.49631 11.9122 9.49631C13.3244 9.49631 14.4732 10.645 14.4732 12.0573C14.4732 13.4696 13.3244 14.6183 11.9122 14.6183Z" fill="#04132C"/>
</g>
<defs>
<clipPath id="clip0_1_7424">
<rect width="24" height="24" fill="white"/>
</clipPath>
</defs>
</svg>
