<svg width="14" height="14" viewBox="0 0 14 14" fill="none" xmlns="http://www.w3.org/2000/svg">
<path d="M6.99996 2.99756C4.79299 2.99756 2.99805 4.79306 2.99805 6.99947C2.99805 9.20589 4.79355 11.0014 6.99996 11.0014C9.20637 11.0014 11.0019 9.20589 11.0019 6.99947C11.0019 4.79306 9.20637 2.99756 6.99996 2.99756ZM6.99996 9.66202C5.53218 9.66202 4.33797 8.46781 4.33797 7.00003C4.33797 5.53225 5.53218 4.33804 6.99996 4.33804C8.46774 4.33804 9.66195 5.53225 9.66195 7.00003C9.66195 8.46781 8.46774 9.66202 6.99996 9.66202Z" fill="#04132C"/>
<path d="M13.3295 12.6595H11.113C12.8611 11.3855 13.9994 9.3231 13.9994 6.99944C13.9994 3.1399 10.8595 0 7 0C3.14045 0 0 3.13989 0 7C0 9.32366 1.13838 11.386 2.88643 12.6601H0.669963C0.299809 12.6601 0 12.9599 0 13.33C0 13.7002 0.299809 14 0.669963 14H13.3295C13.6996 14 13.9994 13.7002 13.9994 13.33C13.9994 12.9599 13.6996 12.6601 13.3295 12.6601V12.6595ZM1.33993 7C1.33993 3.87909 3.87909 1.33993 7 1.33993C10.1209 1.33993 12.6601 3.87909 12.6601 7C12.6601 10.1209 10.1209 12.6601 7 12.6601C3.87909 12.6601 1.33993 10.1204 1.33993 7Z" fill="#04132C"/>
</svg>
