<svg width="14" height="14" viewBox="0 0 14 14" fill="none" xmlns="http://www.w3.org/2000/svg">
<path d="M11.5683 1.80743H11.2894V0.674834C11.2894 0.301988 10.9874 0 10.6146 0C10.2417 0 9.93975 0.301988 9.93975 0.674834V1.80743H4.06025V0.674834C4.06025 0.301988 3.75826 0 3.38542 0C3.01257 0 2.71058 0.301988 2.71058 0.674834V1.80743H2.43165C1.09098 1.80743 0 2.89841 0 4.23908V9.76092C0 11.1016 1.09098 12.1926 2.43165 12.1926H7.62057C8.18911 13.2661 9.31721 14 10.6146 14C12.4816 14 14 12.4811 14 10.6146V4.23908C14 2.89841 12.909 1.80743 11.5683 1.80743ZM2.43165 3.1571H11.5683C12.165 3.1571 12.6503 3.64242 12.6503 4.23908V4.51802H1.34967V4.23908C1.34967 3.64242 1.83499 3.1571 2.43165 3.1571ZM7.2286 10.6146C7.2286 10.6916 7.23197 10.7675 7.23704 10.8435H2.43165C1.83499 10.8435 1.34967 10.3581 1.34967 9.76148V5.86768H12.6503V7.91131C12.0835 7.48335 11.3783 7.2286 10.6146 7.2286C8.74754 7.2286 7.2286 8.74754 7.2286 10.614V10.6146ZM10.6146 12.6503C9.49211 12.6503 8.57827 11.7371 8.57827 10.6146C8.57827 9.49211 9.49154 8.57883 10.6146 8.57883C11.7376 8.57883 12.6503 9.49211 12.6503 10.6146C12.6503 11.7371 11.7371 12.6503 10.6146 12.6503Z" fill="#04132C"/>
</svg>
