<svg width="10" height="10" viewBox="0 0 10 10" fill="none" xmlns="http://www.w3.org/2000/svg">
<path d="M3.17644 2.44823H7.57903C7.83548 2.44823 8.04319 2.2401 8.04319 1.98315C8.04319 1.72619 7.83548 1.51807 7.57903 1.51807H3.17644C2.91999 1.51807 2.71228 1.72619 2.71228 1.98315C2.71228 2.2401 2.91999 2.44823 3.17644 2.44823Z" fill="#818995"/>
<path d="M8.78003 3.96597H9.53584C9.79229 3.96597 10 3.75785 10 3.50089C10 3.24393 9.79229 3.03581 9.53584 3.03581H9.48555V0.930161H9.53584C9.79229 0.930161 10 0.722037 10 0.46508C10 0.208123 9.79229 0 9.53584 0H2.73469C1.64352 0 0.755812 0.889466 0.755812 1.98318C0.755812 2.444 0.914014 2.86799 1.17781 3.20518C0.484663 3.51097 0 4.20122 0 5.00194C0 5.80265 0.483503 6.49136 1.17549 6.79792C0.912853 7.13433 0.755812 7.55755 0.755812 8.01682C0.755812 9.11015 1.64352 10 2.73508 10H9.53584C9.79229 10 10 9.79188 10 9.53492C10 9.27796 9.79229 9.06984 9.53584 9.06984H9.48555V6.96419H9.53584C9.79229 6.96419 10 6.75607 10 6.49911C10 6.24215 9.79229 6.03403 9.53584 6.03403H8.73013V3.96597H8.78041H8.78003ZM2.73469 0.930161H8.55723V3.03581H2.73469C2.15526 3.03581 1.68375 2.56337 1.68375 1.98279C1.68375 1.40222 2.15526 0.929773 2.73469 0.929773V0.930161ZM2.73469 9.06984C2.15526 9.06984 1.68375 8.5974 1.68375 8.01682C1.68375 7.43625 2.10885 7.01225 2.64805 6.96768H8.55723V9.06945H2.73469V9.06984ZM7.80142 6.03403H2.73469C2.69485 6.03403 2.6554 6.03558 2.61633 6.0379H1.97888C1.39945 6.0379 0.927939 5.57321 0.927939 5.00194C0.927939 4.43066 1.39945 3.96597 1.97888 3.96597H7.8018V6.03403H7.80142Z" fill="#818995"/>
<path d="M1.48767 5.00024C1.48767 5.25719 1.69538 5.46532 1.95183 5.46532H6.84604C7.10249 5.46532 7.31021 5.25719 7.31021 5.00024C7.31021 4.74328 7.10249 4.53516 6.84604 4.53516H1.95183C1.69538 4.53516 1.48767 4.74328 1.48767 5.00024Z" fill="#818995"/>
<path d="M7.82505 7.55957H2.93084C2.67439 7.55957 2.46667 7.76769 2.46667 8.02465C2.46667 8.28161 2.67439 8.48973 2.93084 8.48973H7.82505C8.0815 8.48973 8.28921 8.28161 8.28921 8.02465C8.28921 7.76769 8.0815 7.55957 7.82505 7.55957Z" fill="#818995"/>
</svg>
