<svg width="22" height="20" viewBox="0 0 22 20" fill="none" xmlns="http://www.w3.org/2000/svg">
<path d="M14.6621 13.6977C14.748 13.7218 14.8347 13.7331 14.9198 13.7331C15.342 13.7331 15.7297 13.4537 15.8478 13.0266C15.9898 12.5137 15.6896 11.983 15.1766 11.841L12.2843 11.0398V5.86761C12.2843 5.33538 11.8532 4.9043 11.321 4.9043C10.7887 4.9043 10.3577 5.33538 10.3577 5.86761V11.7727C10.3577 12.2054 10.6467 12.5851 11.0641 12.7007L14.6629 13.6977H14.6621Z" fill="#04132C"/>
<path d="M11.8925 0C6.60552 0 2.26339 4.12539 1.91659 9.32648L1.75122 9.16111C1.37473 8.78462 0.765434 8.78462 0.388939 9.16111C0.0124436 9.53761 0.0124436 10.1469 0.388939 10.5234L2.2682 12.4027C2.44882 12.5833 2.69367 12.6844 2.94975 12.6844C3.20583 12.6844 3.44987 12.5833 3.63129 12.4027L5.51056 10.5234C5.88705 10.1469 5.88705 9.53761 5.51056 9.16111C5.13406 8.78462 4.52477 8.78462 4.14827 9.16111L3.8384 9.47098C4.11215 5.26531 7.62021 1.92663 11.8933 1.92663C16.1664 1.92663 19.9667 5.54788 19.9667 10C19.9667 14.4521 16.3454 18.0734 11.8933 18.0734C11.3611 18.0734 10.93 18.5045 10.93 19.0367C10.93 19.5689 11.3611 20 11.8933 20C17.4075 20 21.8933 15.5142 21.8933 10C21.8933 4.48583 17.4067 0 11.8925 0Z" fill="#04132C"/>
</svg>
