<svg width="16" height="17" viewBox="0 0 16 17" fill="none" xmlns="http://www.w3.org/2000/svg">
<path d="M14.024 3.68346H12.8038V1.33271C12.8038 0.872777 12.431 0.5 11.9711 0.5C11.5111 0.5 11.1384 0.872777 11.1384 1.33271V3.68346H4.80974V1.33271C4.80974 0.872777 4.43697 0.5 3.97703 0.5C3.5171 0.5 3.14432 0.872777 3.14432 1.33271V3.68346H1.94299C0.871572 3.68346 0 4.55503 0 5.62645V14.557C0 15.6284 0.871572 16.5 1.94299 16.5H14.024C15.0954 16.5 15.967 15.6284 15.967 14.557V5.62645C15.967 4.55503 15.0954 3.68346 14.024 3.68346ZM1.94299 5.34888H14.024C14.1769 5.34888 14.3015 5.47351 14.3015 5.62645V7.1431H1.66542V5.62645C1.66542 5.47351 1.79005 5.34888 1.94299 5.34888ZM14.024 14.8346H1.94299C1.79005 14.8346 1.66542 14.7099 1.66542 14.557V8.80852H14.3015V14.557C14.3015 14.7099 14.1769 14.8346 14.024 14.8346Z" fill="#04132C"/>
</svg>
