<svg width="24" height="24" viewBox="0 0 24 24" fill="none" xmlns="http://www.w3.org/2000/svg">
<path d="M23.5848 16.0033L21.3267 13.7452C20.8911 13.3095 20.1861 13.3095 19.7504 13.7452L17.4924 16.0033C17.0567 16.4389 17.0567 17.1439 17.4924 17.5795C17.928 18.0152 18.633 18.0152 19.0687 17.5795L19.4383 17.2098V22.8852C19.4383 23.501 19.9371 23.9998 20.553 23.9998C21.1688 23.9998 21.6676 23.501 21.6676 22.8852V17.2386L22.0085 17.5795C22.2259 17.7969 22.511 17.9056 22.7971 17.9056C23.0832 17.9056 23.3674 17.7969 23.5857 17.5795C24.0214 17.1439 24.0214 16.4389 23.5857 16.0033H23.5848Z" fill="#04132C"/>
<path d="M12.5034 7.57493C12.9614 7.57493 13.4054 7.6641 13.8224 7.84059C14.389 8.08023 15.0439 7.81551 15.2835 7.24797C15.5232 6.68136 15.2585 6.02744 14.6909 5.78687C13.998 5.49334 13.2614 5.34473 12.5034 5.34473C11.7455 5.34473 11.0098 5.49334 10.316 5.78687C9.64718 6.07017 9.04621 6.47515 8.53069 6.99067C8.10341 7.41795 7.75323 7.90561 7.48386 8.44063H6.55592C5.94008 8.44063 5.44128 8.93943 5.44128 9.55527C5.44128 10.1711 5.94008 10.6699 6.55592 10.6699H6.8931C6.88845 10.7674 6.88567 10.865 6.88567 10.9634C6.88567 11.1232 6.89403 11.282 6.90703 11.4399H6.55685C5.94101 11.4399 5.44221 11.9387 5.44221 12.5546C5.44221 13.1704 5.94101 13.6692 6.55685 13.6692H7.57953C7.83404 14.1327 8.15264 14.5572 8.53069 14.9362C9.04621 15.4517 9.64718 15.8567 10.316 16.14C11.0089 16.4335 11.7455 16.5821 12.5034 16.5821C13.2614 16.5821 13.9971 16.4335 14.6909 16.14C15.2575 15.9003 15.5232 15.2464 15.2835 14.6789C15.0439 14.1123 14.39 13.8466 13.8224 14.0863C13.4054 14.2628 12.9614 14.3519 12.5034 14.3519C12.0455 14.3519 11.6015 14.2628 11.1845 14.0863C10.9262 13.9767 10.6847 13.8373 10.4627 13.6692H10.8705C11.4863 13.6692 11.9851 13.1704 11.9851 12.5546C11.9851 11.9387 11.4863 11.4399 10.8705 11.4399H9.14838C9.12609 11.283 9.11494 11.1241 9.11494 10.9634C9.11494 10.865 9.11959 10.7674 9.12795 10.6699H10.8705C11.4863 10.6699 11.9851 10.1711 11.9851 9.55527C11.9851 8.93943 11.4863 8.44063 10.8705 8.44063H10.2407C10.5203 8.18891 10.8371 7.98735 11.1845 7.84059C11.6015 7.6641 12.0455 7.57493 12.5034 7.57493Z" fill="#04132C"/>
<path d="M19.5117 10.8705C19.5117 11.4863 20.0105 11.9851 20.6264 11.9851C21.2422 11.9851 21.741 11.4863 21.741 10.8705C21.741 4.87654 16.8645 0 10.8705 0C4.87654 0 0 4.87654 0 10.8705C0 16.8645 4.87654 21.741 10.8705 21.741H15.4628C16.0786 21.741 16.5774 21.2422 16.5774 20.6264C16.5774 20.0105 16.0786 19.5117 15.4628 19.5117H10.8705C6.10543 19.5117 2.22927 15.6356 2.22927 10.8705C2.22927 6.10543 6.10543 2.22927 10.8705 2.22927C15.6356 2.22927 19.5117 6.10543 19.5117 10.8705Z" fill="#04132C"/>
</svg>
