<svg width="24" height="24" viewBox="0 0 24 24" fill="none" xmlns="http://www.w3.org/2000/svg">
<g clip-path="url(#clip0_1_7416)">
<path d="M19.8315 3.09845H19.3533V1.15686C19.3533 0.517694 18.8356 0 18.1964 0C17.5573 0 17.0396 0.517694 17.0396 1.15686V3.09845H6.96043V1.15686C6.96043 0.517694 6.44274 0 5.80358 0C5.16441 0 4.64672 0.517694 4.64672 1.15686V3.09845H4.16855C1.87026 3.09845 0 4.96871 0 7.267V16.733C0 19.0313 1.87026 20.9015 4.16855 20.9015H13.0638C14.0385 22.7419 15.9724 24 18.1964 24C21.3971 24 24 21.3961 24 18.1964V7.267C24 4.96871 22.1297 3.09845 19.8315 3.09845ZM4.16855 5.41217H19.8315C20.8543 5.41217 21.6863 6.24415 21.6863 7.267V7.74517H2.31372V7.267C2.31372 6.24415 3.14569 5.41217 4.16855 5.41217ZM12.3919 18.1964C12.3919 18.3285 12.3977 18.4586 12.4063 18.5888H4.16855C3.14569 18.5888 2.31372 17.7568 2.31372 16.734V10.0589H21.6863V13.5622C20.7145 12.8286 19.5056 12.3919 18.1964 12.3919C14.9958 12.3919 12.3919 14.9958 12.3919 18.1955V18.1964ZM18.1964 21.6863C16.2722 21.6863 14.7056 20.1207 14.7056 18.1964C14.7056 16.2722 16.2712 14.7066 18.1964 14.7066C20.1216 14.7066 21.6863 16.2722 21.6863 18.1964C21.6863 20.1207 20.1207 21.6863 18.1964 21.6863Z" fill="#04132C"/>
</g>
<defs>
<clipPath id="clip0_1_7416">
<rect width="24" height="24" fill="white"/>
</clipPath>
</defs>
</svg>
