<svg width="10" height="11" viewBox="0 0 10 11" fill="none" xmlns="http://www.w3.org/2000/svg">
<path d="M5.00003 10.3629C2.24311 10.3629 3.05176e-05 8.1202 3.05176e-05 5.36328C3.05176e-05 2.60637 2.24311 0.363281 5.00003 0.363281C7.75695 0.363281 10 2.60637 10 5.36328C10 8.1202 7.75695 10.3633 5.00003 10.3633V10.3629ZM5.00003 1.29049C2.75424 1.29049 0.927244 3.11749 0.927244 5.36328C0.927244 7.60907 2.75424 9.43607 5.00003 9.43607C7.24582 9.43607 9.07282 7.60907 9.07282 5.36328C9.07282 3.11749 7.24543 1.29049 5.00003 1.29049Z" fill="#818995"/>
<path d="M7.03487 5.87346H4.96216C4.70602 5.87346 4.49856 5.666 4.49856 5.40986V2.00853C4.49856 1.75239 4.70602 1.54492 4.96216 1.54492C5.21831 1.54492 5.42577 1.75239 5.42577 2.00853V4.94625H7.03487C7.29102 4.94625 7.49848 5.15372 7.49848 5.40986C7.49848 5.666 7.29102 5.87346 7.03487 5.87346Z" fill="#818995"/>
</svg>
