<svg width="16" height="16" viewBox="0 0 16 16" fill="none" xmlns="http://www.w3.org/2000/svg">
<g clip-path="url(#clip0_1_7285)">
<path d="M0.763905 5.43773C1.18596 5.43773 1.52781 5.09589 1.52781 4.67383V2.58327L3.45795 4.51341C3.60691 4.66237 3.80234 4.73685 3.99841 4.73685C4.19448 4.73685 4.38927 4.66237 4.53887 4.51341C4.83743 4.21485 4.83743 3.73168 4.53887 3.43312L2.63356 1.52781H4.67446C5.09652 1.52781 5.43837 1.18596 5.43837 0.763906C5.43837 0.341848 5.09525 0 4.67383 0H0.763905C0.341848 0 0 0.341848 0 0.763906V4.67383C0 5.09589 0.341848 5.43773 0.763905 5.43773Z" fill="#818995"/>
<path d="M15.2361 10.5625C14.814 10.5625 14.4722 10.9043 14.4722 11.3264V13.417L12.542 11.4868C12.2435 11.1883 11.7597 11.1883 11.4618 11.4868C11.1638 11.7854 11.1632 12.2686 11.4618 12.5671L13.3671 14.4724H11.3262C10.9041 14.4724 10.5623 14.8143 10.5623 15.2363C10.5623 15.6584 10.9041 16.0002 11.3262 16.0002H15.2361C15.6581 16.0002 16 15.6584 16 15.2363V11.3264C16 10.9043 15.6581 10.5625 15.2361 10.5625Z" fill="#818995"/>
<path d="M15.2361 0H11.3262C10.9041 0 10.5623 0.341848 10.5623 0.763906C10.5623 1.18596 10.9041 1.52781 11.3262 1.52781H13.4167L11.4866 3.45795C11.188 3.75651 11.188 4.23968 11.4866 4.53824C11.6355 4.6872 11.831 4.76168 12.027 4.76168C12.2231 4.76168 12.4179 4.6872 12.5675 4.53824L14.4728 2.63293V4.67383C14.4728 5.09589 14.8147 5.43773 15.2367 5.43773C15.6588 5.43773 16.0006 5.09589 16.0006 4.67383V0.763906C16.0006 0.341848 15.6588 0 15.2367 0H15.2361Z" fill="#818995"/>
<path d="M4.67383 14.4724H2.58327L4.51341 12.5423C4.81197 12.2437 4.81197 11.7606 4.51341 11.462C4.21485 11.1634 3.73168 11.1634 3.43312 11.462L1.52781 13.3673V11.3264C1.52781 10.9043 1.18596 10.5625 0.763906 10.5625C0.341848 10.5625 0 10.9043 0 11.3264V15.2363C0 15.6584 0.341848 16.0002 0.763906 16.0002H4.67383C5.09589 16.0002 5.43773 15.6584 5.43773 15.2363C5.43773 14.8143 5.09589 14.4724 4.67383 14.4724Z" fill="#818995"/>
<path d="M7.94144 4.80322C6.15772 4.80322 4.7063 6.25464 4.7063 8.03836C4.7063 9.82208 6.15772 11.2735 7.94144 11.2735C9.72516 11.2735 11.1766 9.82208 11.1766 8.03836C11.1766 6.25464 9.72516 4.80322 7.94144 4.80322ZM7.94144 9.74569C6.99992 9.74569 6.23411 8.97988 6.23411 8.03836C6.23411 7.09685 6.99992 6.33103 7.94144 6.33103C8.88295 6.33103 9.64877 7.09685 9.64877 8.03836C9.64877 8.97988 8.88295 9.74569 7.94144 9.74569Z" fill="#818995"/>
</g>
<defs>
<clipPath id="clip0_1_7285">
<rect width="16" height="16" fill="white"/>
</clipPath>
</defs>
</svg>
