<svg width="25" height="24" viewBox="0 0 25 24" fill="none" xmlns="http://www.w3.org/2000/svg">
<path d="M18.7857 8.45166H6.21432C5.57929 8.45166 5.06494 8.96601 5.06494 9.60104C5.06494 10.2361 5.57929 10.7504 6.21432 10.7504H18.7857C19.4207 10.7504 19.935 10.2361 19.935 9.60104C19.935 8.96601 19.4207 8.45166 18.7857 8.45166Z" fill="#818995"/>
<path d="M15.2982 13.2485H6.21432C5.57929 13.2485 5.06494 13.7629 5.06494 14.3979C5.06494 15.0329 5.57929 15.5473 6.21432 15.5473H15.2992C15.9342 15.5473 16.4486 15.0329 16.4486 14.3979C16.4486 13.7629 15.9342 13.2485 15.2992 13.2485H15.2982Z" fill="#818995"/>
<path d="M18.7531 0H6.2469C3.07844 0 0.5 2.57844 0.5 5.7469V22.8506C0.5 23.4857 1.01435 24 1.64938 24H18.7531C21.9216 24 24.5 21.4216 24.5 18.2531V5.7469C24.5 2.57844 21.9216 0 18.7531 0ZM22.2012 18.2531C22.2012 20.1544 20.6544 21.7012 18.7531 21.7012H2.79876V5.7469C2.79876 3.84563 4.34563 2.29876 6.2469 2.29876H18.7531C20.6544 2.29876 22.2012 3.84563 22.2012 5.7469V18.2531Z" fill="#818995"/>
</svg>
