<svg width="25" height="24" viewBox="0 0 25 24" fill="none" xmlns="http://www.w3.org/2000/svg">
<path d="M18.7857 8.45215H6.21432C5.57929 8.45215 5.06494 8.9665 5.06494 9.60153C5.06494 10.2366 5.57929 10.7509 6.21432 10.7509H18.7857C19.4207 10.7509 19.935 10.2366 19.935 9.60153C19.935 8.9665 19.4207 8.45215 18.7857 8.45215Z" fill="#005BFE"/>
<path d="M15.2982 13.248H6.21432C5.57929 13.248 5.06494 13.7624 5.06494 14.3974C5.06494 15.0325 5.57929 15.5468 6.21432 15.5468H15.2992C15.9342 15.5468 16.4486 15.0325 16.4486 14.3974C16.4486 13.7624 15.9342 13.248 15.2992 13.248H15.2982Z" fill="#005BFE"/>
<path d="M18.7531 0H6.2469C3.07844 0 0.5 2.57844 0.5 5.7469V22.8506C0.5 23.4857 1.01435 24 1.64938 24H18.7531C21.9216 24 24.5 21.4216 24.5 18.2531V5.7469C24.5 2.57844 21.9216 0 18.7531 0ZM22.2012 18.2531C22.2012 20.1544 20.6544 21.7012 18.7531 21.7012H2.79876V5.7469C2.79876 3.84563 4.34563 2.29876 6.2469 2.29876H18.7531C20.6544 2.29876 22.2012 3.84563 22.2012 5.7469V18.2531Z" fill="#005BFE"/>
</svg>
