<svg width="25" height="24" viewBox="0 0 25 24" fill="none" xmlns="http://www.w3.org/2000/svg">
<g clip-path="url(#clip0_1_7681)">
<path d="M1.64586 8.1566C2.27894 8.1566 2.79172 7.64383 2.79172 7.01074V3.87491L5.68692 6.77011C5.91036 6.99356 6.20351 7.10528 6.49761 7.10528C6.79172 7.10528 7.08391 6.99356 7.30831 6.77011C7.75615 6.32227 7.75615 5.59752 7.30831 5.14968L4.45035 2.29172H7.5117C8.14478 2.29172 8.65756 1.77894 8.65756 1.14586C8.65756 0.512772 8.14287 0 7.51074 0H1.64586C1.01277 0 0.5 0.512772 0.5 1.14586V7.01074C0.5 7.64383 1.01277 8.1566 1.64586 8.1566Z" fill="#005BFE"/>
<path d="M23.3541 15.8433C22.721 15.8433 22.2083 16.356 22.2083 16.9891V20.125L19.3131 17.2298C18.8652 16.7819 18.1395 16.7819 17.6926 17.2298C17.2457 17.6776 17.2448 18.4023 17.6926 18.8502L20.5506 21.7081H17.4892C16.8562 21.7081 16.3434 22.2209 16.3434 22.854C16.3434 23.4871 16.8562 23.9999 17.4892 23.9999H23.3541C23.9872 23.9999 24.5 23.4871 24.5 22.854V16.9891C24.5 16.356 23.9872 15.8433 23.3541 15.8433Z" fill="#005BFE"/>
<path d="M23.3541 0H17.4892C16.8562 0 16.3434 0.512772 16.3434 1.14586C16.3434 1.77894 16.8562 2.29172 17.4892 2.29172H20.6251L17.7299 5.18692C17.282 5.63476 17.282 6.35951 17.7299 6.80735C17.9533 7.0308 18.2465 7.14252 18.5406 7.14252C18.8347 7.14252 19.1269 7.0308 19.3513 6.80735L22.2092 3.94939V7.01074C22.2092 7.64383 22.722 8.1566 23.3551 8.1566C23.9882 8.1566 24.5009 7.64383 24.5009 7.01074V1.14586C24.5009 0.512772 23.9882 0 23.3551 0H23.3541Z" fill="#005BFE"/>
<path d="M7.51074 21.7081H4.37491L7.27011 18.8129C7.71795 18.3651 7.71795 17.6403 7.27011 17.1925C6.82227 16.7447 6.09752 16.7447 5.64968 17.1925L2.79172 20.0505V16.9891C2.79172 16.356 2.27894 15.8433 1.64586 15.8433C1.01277 15.8433 0.5 16.356 0.5 16.9891V22.854C0.5 23.4871 1.01277 23.9999 1.64586 23.9999H7.51074C8.14383 23.9999 8.6566 23.4871 8.6566 22.854C8.6566 22.2209 8.14383 21.7081 7.51074 21.7081Z" fill="#005BFE"/>
<path d="M12.4122 7.20459C9.73658 7.20459 7.55945 9.38172 7.55945 12.0573C7.55945 14.7329 9.73658 16.91 12.4122 16.91C15.0877 16.91 17.2649 14.7329 17.2649 12.0573C17.2649 9.38172 15.0877 7.20459 12.4122 7.20459ZM12.4122 14.6183C10.9999 14.6183 9.85116 13.4696 9.85116 12.0573C9.85116 10.645 10.9999 9.49631 12.4122 9.49631C13.8244 9.49631 14.9732 10.645 14.9732 12.0573C14.9732 13.4696 13.8244 14.6183 12.4122 14.6183Z" fill="#005BFE"/>
</g>
<defs>
<clipPath id="clip0_1_7681">
<rect width="24" height="24" fill="white" transform="translate(0.5)"/>
</clipPath>
</defs>
</svg>
