<svg width="15" height="15" viewBox="0 0 15 15" fill="none" xmlns="http://www.w3.org/2000/svg">
<path d="M13.2956 14.5H1.66834C0.765268 14.5 0.0305176 13.7653 0.0305176 12.8622V10.0995C0.0305176 9.69705 0.356722 9.37085 0.759196 9.37085C1.16167 9.37085 1.48787 9.69705 1.48787 10.0995V12.8622C1.48787 12.9618 1.56876 13.0427 1.66834 13.0427H13.2954C13.6978 13.0427 14.0241 13.3689 14.0241 13.7713C14.0241 14.1738 13.6978 14.5 13.2954 14.5H13.2956Z" fill="#005BFE"/>
<path d="M10.5107 11.7393H8.03756C7.84422 11.7393 7.65889 11.6625 7.52239 11.5258L0.213503 4.21714C0.0767541 4.08039 0 3.89506 0 3.70196C0 3.50886 0.0767541 3.32329 0.213503 3.18679L2.68664 0.713412C2.97131 0.428741 3.43256 0.428984 3.71723 0.713412L11.0259 8.02205C11.1626 8.1588 11.2394 8.34413 11.2394 8.53723V11.0104C11.2394 11.4128 10.9132 11.7393 10.5107 11.7393ZM8.33923 10.2819H9.78202V8.83914L3.20181 2.25918L1.75903 3.70196L8.33923 10.2819Z" fill="#005BFE"/>
</svg>
