<svg width="30" height="30" viewBox="0 0 30 30" fill="none" xmlns="http://www.w3.org/2000/svg">
<path d="M26.0725 16.421V10.9612C26.0725 9.11771 25.5994 7.29084 24.705 5.67898C23.8105 4.06661 22.5102 2.6984 20.9457 1.72223L20.8353 1.65299C19.101 0.571126 17.1062 0 15.063 0C15.0422 0 15.0214 0 15.0005 0C12.9354 0.0119744 10.9245 0.606008 9.18556 1.71911C7.6503 2.70153 6.37603 4.06556 5.50082 5.66388C4.6256 7.2622 4.16299 9.07034 4.16299 10.892V16.3908C1.82857 16.6267 0 18.6025 0 20.9973C0 23.55 2.07811 25.6267 4.6329 25.6267H25.3671C27.9214 25.6267 29.9995 23.55 29.9995 20.9973C29.9995 18.6842 28.2933 16.7615 26.0725 16.421ZM25.3671 22.503H4.6329C3.80197 22.503 3.12576 21.8272 3.12576 20.9973C3.12576 20.1675 3.80197 19.4912 4.6329 19.4912C6.09784 19.4912 7.28927 18.3005 7.28927 16.8365V10.892C7.28927 8.23057 8.62814 5.78467 10.8714 4.3493C12.1118 3.55535 13.546 3.13156 15.0188 3.12323C15.0339 3.12323 15.0484 3.12323 15.063 3.12323C16.5202 3.12323 17.9429 3.53036 19.1797 4.30193L19.2901 4.37117C20.406 5.06777 21.3333 6.04342 21.9715 7.19348C22.6097 8.34354 22.9467 9.64615 22.9467 10.9612V17.0723C22.9467 18.4062 24.0324 19.4912 25.3671 19.4912C26.198 19.4912 26.8737 20.1669 26.8737 20.9973C26.8737 21.8277 26.1975 22.503 25.3671 22.503Z" fill="#B0BCD1"/>
<path d="M21.4368 26.8762H9.67201C8.80878 26.8762 8.10913 27.5754 8.10913 28.4381C8.10913 29.3008 8.80878 30 9.67201 30H21.4363C22.2996 30 22.9992 29.3008 22.9992 28.4381C22.9992 27.5754 22.2996 26.8762 21.4363 26.8762H21.4368Z" fill="#B0BCD1"/>
</svg>
