<svg width="16" height="17" viewBox="0 0 16 17" fill="none" xmlns="http://www.w3.org/2000/svg">
<path d="M15.137 0.5H8.50212C8.28032 0.5 8.06771 0.588053 7.91111 0.744932L0.244932 8.41111C0.0880529 8.56799 0 8.7806 0 9.00212C0 9.22365 0.0880529 9.43654 0.244932 9.59314L6.90686 16.2551C7.07015 16.4184 7.28415 16.5 7.49788 16.5C7.7116 16.5 7.9256 16.4184 8.08861 16.2553L15.728 8.62372C15.8849 8.46684 15.9733 8.25423 15.9733 8.03243V1.33595C15.9733 0.874225 15.599 0.5 15.1373 0.5H15.137ZM14.3011 7.68579L7.49815 14.482L2.01825 9.00212L8.84848 2.17189H14.3011V7.68579Z" fill="#005BFE"/>
<path d="M8.51962 4.578C8.19332 4.25142 7.66389 4.25142 7.33731 4.578C7.01073 4.90458 7.01073 5.43373 7.33731 5.76031L7.3387 5.7617C7.27211 5.82022 7.2069 5.88096 7.14337 5.94449C7.14309 5.94477 7.14281 5.94505 7.14253 5.94533L7.11523 5.91802C6.78893 5.59145 6.2595 5.59145 5.93292 5.91802C5.60634 6.2446 5.60634 6.77375 5.93292 7.10033L6.21268 7.38009C6.07726 7.74038 5.99645 8.11879 5.975 8.5036C5.92038 9.48807 6.25755 10.3976 6.92463 11.0647C7.14644 11.2867 7.39917 11.4746 7.67531 11.6231C7.80126 11.6908 7.93668 11.7228 8.07043 11.7228C8.36831 11.7228 8.65643 11.5632 8.80746 11.2826C9.0262 10.876 8.87378 10.3692 8.46695 10.1504C8.33459 10.0791 8.21338 9.98908 8.10666 9.88263C7.82773 9.60371 7.66779 9.2292 7.64438 8.81207L8.34407 9.51175C8.50736 9.67504 8.72136 9.75668 8.93508 9.75668C9.1488 9.75668 9.36308 9.67504 9.52609 9.51175C9.85267 9.18518 9.85267 8.65602 9.52609 8.32945L8.32428 7.12764C8.32428 7.12764 8.32484 7.12708 8.32512 7.1268C8.38921 7.06271 8.45608 7.00364 8.52491 6.94819L9.74818 8.17145C9.91147 8.33474 10.1255 8.41639 10.3392 8.41639C10.5529 8.41639 10.7672 8.33474 10.9302 8.17145C11.2568 7.84488 11.2568 7.31572 10.9302 6.98915L10.4741 6.533C10.6998 6.60935 10.9068 6.73391 11.0807 6.90778C11.1843 7.01144 11.2724 7.12875 11.3426 7.25693C11.5644 7.6618 12.0727 7.81005 12.4775 7.58824C12.8824 7.36644 13.0307 6.85818 12.8089 6.45331C12.6626 6.18608 12.4789 5.94143 12.263 5.72548C11.3716 4.83408 10.0692 4.57354 8.86319 4.92185L8.51906 4.57772L8.51962 4.578Z" fill="#005BFE"/>
</svg>
