<svg width="16" height="17" viewBox="0 0 16 17" fill="none" xmlns="http://www.w3.org/2000/svg">
<path d="M15.1285 14.8454H12.8161C13.1013 14.6278 13.3743 14.3901 13.6322 14.1322C15.1406 12.6238 15.971 10.6187 15.971 8.48566C15.971 6.35258 15.1403 4.3472 13.6322 2.8391C12.1241 1.331 10.1185 0.5 7.98538 0.5C5.85231 0.5 3.8472 1.33072 2.33883 2.83883C0.830725 4.3472 0 6.35258 0 8.48538C0 10.6182 0.830725 12.6238 2.33883 14.1319C2.5967 14.3898 2.86975 14.6276 3.15493 14.8452H0.842584C0.385575 14.8452 0.0151693 15.2156 0.0151693 15.6726C0.0151693 16.1296 0.385575 16.5 0.842584 16.5H15.1285C15.5855 16.5 15.9559 16.1296 15.9559 15.6726C15.9559 15.2156 15.5855 14.8452 15.1285 14.8452V14.8454ZM1.65483 8.48538C1.65483 6.79442 2.31345 5.20468 3.50907 4.00879C4.70468 2.81318 6.29442 2.15455 7.98566 2.15455C9.67689 2.15455 11.2664 2.81318 12.462 4.00879C13.6576 5.20441 14.3162 6.79415 14.3162 8.48538C14.3162 10.1766 13.6576 11.7661 12.462 12.9617C11.2664 14.1573 9.67662 14.8159 7.98566 14.8159C6.2947 14.8159 4.70496 14.1573 3.50907 12.9617C2.31345 11.7661 1.65483 10.1763 1.65483 8.48538Z" fill="#005BFE"/>
<path d="M7.98555 12.5491C10.2262 12.5491 12.049 10.7263 12.049 8.48568C12.049 6.24504 10.2262 4.42224 7.98555 4.42224C5.74491 4.42224 3.92212 6.24504 3.92212 8.48568C3.92212 10.7263 5.74491 12.5491 7.98555 12.5491ZM7.98555 6.07679C9.31383 6.07679 10.3942 7.1574 10.3942 8.4854C10.3942 9.8134 9.31356 10.894 7.98555 10.894C6.65755 10.894 5.57695 9.8134 5.57695 8.4854C5.57695 7.1574 6.65755 6.07679 7.98555 6.07679Z" fill="#005BFE"/>
</svg>
