<svg width="31" height="30" viewBox="0 0 31 30" fill="none" xmlns="http://www.w3.org/2000/svg">
<path d="M28.893 26.8977H24.5573C25.0921 26.4897 25.604 26.0439 26.0875 25.5604C28.9158 22.7322 30.4728 18.9726 30.4728 14.9731C30.4728 10.9736 28.9152 7.21351 26.0875 4.38582C23.2599 1.55813 19.4993 0 15.4997 0C11.5002 0 7.74065 1.55761 4.91245 4.3853C2.08475 7.21351 0.527145 10.9736 0.527145 14.9726C0.527145 18.9716 2.08475 22.7322 4.91245 25.5599C5.39597 26.0434 5.90793 26.4892 6.44265 26.8972H2.10699C1.2501 26.8972 0.555588 27.5917 0.555588 28.4486C0.555588 29.3055 1.2501 30 2.10699 30H28.893C29.7499 30 30.4444 29.3055 30.4444 28.4486C30.4444 27.5917 29.7499 26.8972 28.893 26.8972V26.8977ZM3.62995 14.9726C3.62995 11.802 4.86487 8.82128 7.10665 6.57898C9.34842 4.33721 12.3292 3.10229 15.5003 3.10229C18.6713 3.10229 21.6516 4.33721 23.8933 6.57898C26.1351 8.82076 27.37 11.8015 27.37 14.9726C27.37 18.1437 26.1351 21.1239 23.8933 23.3657C21.6516 25.6075 18.6708 26.8424 15.5003 26.8424C12.3297 26.8424 9.34894 25.6075 7.10665 23.3657C4.86487 21.1239 3.62995 18.1431 3.62995 14.9726Z" fill="#005BFE"/>
<path d="M15.4999 22.5921C19.7011 22.5921 23.1188 19.1743 23.1188 14.9731C23.1188 10.7719 19.7011 7.35419 15.4999 7.35419C11.2987 7.35419 7.88095 10.7719 7.88095 14.9731C7.88095 19.1743 11.2987 22.5921 15.4999 22.5921ZM15.4999 10.4565C17.9904 10.4565 20.016 12.4826 20.016 14.9726C20.016 17.4626 17.9899 19.4887 15.4999 19.4887C13.0099 19.4887 10.9838 17.4626 10.9838 14.9726C10.9838 12.4826 13.0099 10.4565 15.4999 10.4565Z" fill="#005BFE"/>
</svg>
