<svg width="25" height="24" viewBox="0 0 25 24" fill="none" xmlns="http://www.w3.org/2000/svg">
<g clip-path="url(#clip0_1_7970)">
<path d="M20.3315 3.09845H19.8533V1.15686C19.8533 0.517694 19.3356 0 18.6964 0C18.0573 0 17.5396 0.517694 17.5396 1.15686V3.09845H7.46043V1.15686C7.46043 0.517694 6.94274 0 6.30358 0C5.66441 0 5.14672 0.517694 5.14672 1.15686V3.09845H4.66855C2.37026 3.09845 0.5 4.96871 0.5 7.267V16.733C0.5 19.0313 2.37026 20.9015 4.66855 20.9015H13.5638C14.5385 22.7419 16.4724 24 18.6964 24C21.8971 24 24.5 21.3961 24.5 18.1964V7.267C24.5 4.96871 22.6297 3.09845 20.3315 3.09845ZM4.66855 5.41217H20.3315C21.3543 5.41217 22.1863 6.24415 22.1863 7.267V7.74517H2.81372V7.267C2.81372 6.24415 3.64569 5.41217 4.66855 5.41217ZM12.8919 18.1964C12.8919 18.3285 12.8977 18.4586 12.9063 18.5888H4.66855C3.64569 18.5888 2.81372 17.7568 2.81372 16.734V10.0589H22.1863V13.5622C21.2145 12.8286 20.0056 12.3919 18.6964 12.3919C15.4958 12.3919 12.8919 14.9958 12.8919 18.1955V18.1964ZM18.6964 21.6863C16.7722 21.6863 15.2056 20.1207 15.2056 18.1964C15.2056 16.2722 16.7712 14.7066 18.6964 14.7066C20.6216 14.7066 22.1863 16.2722 22.1863 18.1964C22.1863 20.1207 20.6207 21.6863 18.6964 21.6863Z" fill="#005BFE"/>
</g>
<defs>
<clipPath id="clip0_1_7970">
<rect width="24" height="24" fill="white" transform="translate(0.5)"/>
</clipPath>
</defs>
</svg>
