<svg width="18" height="17" viewBox="0 0 18 17" fill="none" xmlns="http://www.w3.org/2000/svg">
<path d="M6.49145 6.63141C6.48546 6.6163 6.48346 6.60803 6.48346 6.60803L8.11383 6.08995C8.08275 5.99215 7.89998 5.48006 7.3494 4.9865C7.18802 4.84194 6.98101 4.68769 6.72212 4.54712C6.98871 4.13653 7.14382 3.64725 7.14382 3.12261C7.14382 1.67644 5.96767 0.5 4.52149 0.5C3.07532 0.5 1.89916 1.67644 1.89916 3.12233C1.89916 3.66407 2.06425 4.16818 2.3471 4.58675C1.3808 5.14275 0.99502 5.93227 0.971069 5.98331L2.51789 6.71438C2.51789 6.71438 2.5159 6.71894 2.51133 6.72778C2.51276 6.72522 2.64449 6.47487 2.95442 6.23394C3.36387 5.91517 3.89107 5.75378 4.52178 5.75378C5.21008 5.75378 5.77007 5.90946 6.14131 6.20429C6.40505 6.41386 6.48831 6.62285 6.49173 6.63141H6.49145ZM4.52149 2.21077C5.02417 2.21077 5.43305 2.61965 5.43305 3.12233C5.43305 3.62501 5.02417 4.03389 4.52149 4.03389C4.01881 4.03389 3.60994 3.62501 3.60994 3.12233C3.60994 2.61965 4.01881 2.21077 4.52149 2.21077Z" fill="#005BFE"/>
<path d="M17.285 6.08966C17.2539 5.99187 17.0711 5.47977 16.5205 4.98622C16.3592 4.84166 16.1522 4.6874 15.8933 4.54683C16.1599 4.13625 16.315 3.64697 16.315 3.12233C16.315 1.67644 15.1385 0.5 13.6926 0.5C12.2467 0.5 11.0703 1.67644 11.0703 3.12233C11.0703 3.66407 11.2354 4.16818 11.5182 4.58675C10.5519 5.14275 10.1662 5.93227 10.1422 5.98331L11.689 6.71438C11.689 6.71438 11.687 6.71894 11.6825 6.72778C11.6839 6.72522 11.8156 6.47487 12.1256 6.23394C12.535 5.91517 13.0622 5.75378 13.6929 5.75378C14.3812 5.75378 14.9412 5.90946 15.3125 6.20429C15.5762 6.41357 15.6595 6.62257 15.6629 6.63141C15.6569 6.6163 15.6549 6.60803 15.6549 6.60803L17.2853 6.08995L17.285 6.08966ZM13.6926 2.21077C14.1953 2.21077 14.6042 2.61965 14.6042 3.12233C14.6042 3.62501 14.1953 4.03389 13.6926 4.03389C13.19 4.03389 12.7811 3.62501 12.7811 3.12233C12.7811 2.61965 13.19 2.21077 13.6926 2.21077Z" fill="#005BFE"/>
<path d="M11.9223 14.7585C11.7609 14.6136 11.5539 14.4597 11.295 14.3191C11.5616 13.9085 11.7167 13.4192 11.7167 12.8946C11.7167 11.4487 10.5403 10.2723 9.09441 10.2723C7.64852 10.2723 6.47208 11.4487 6.47208 12.8946C6.47208 13.4364 6.63717 13.9405 6.92002 14.359C5.95372 14.915 5.56794 15.7048 5.5437 15.7556L7.09052 16.4867C7.09052 16.4867 7.08853 16.4912 7.08397 16.5001C7.08539 16.4975 7.21712 16.2472 7.52706 16.0062C7.9365 15.6874 8.4637 15.5261 9.09441 15.5261C9.78271 15.5261 10.3427 15.6817 10.7139 15.9768C10.9777 16.1861 11.0609 16.3954 11.0644 16.404C11.0584 16.3889 11.0564 16.3806 11.0564 16.3806L12.6867 15.8625C12.6557 15.7647 12.4729 15.2526 11.9223 14.7591V14.7585ZM9.09441 11.9828C9.59709 11.9828 10.006 12.3916 10.006 12.8943C10.006 13.397 9.59709 13.8059 9.09441 13.8059C8.59173 13.8059 8.18285 13.397 8.18285 12.8943C8.18285 12.3916 8.59173 11.9828 9.09441 11.9828Z" fill="#005BFE"/>
<path d="M9.03939 9.93291C9.6855 9.93291 10.2093 9.40913 10.2093 8.76302C10.2093 8.11691 9.6855 7.59314 9.03939 7.59314C8.39328 7.59314 7.86951 8.11691 7.86951 8.76302C7.86951 9.40913 8.39328 9.93291 9.03939 9.93291Z" fill="#005BFE"/>
</svg>
