<svg width="17" height="17" viewBox="0 0 17 17" fill="none" xmlns="http://www.w3.org/2000/svg">
<path d="M8.97119 16.5C6.83435 16.5 4.82524 15.668 3.31451 14.157C1.80378 12.646 0.971191 10.6368 0.971191 8.5C0.971191 6.36316 1.80322 4.35405 3.31423 2.84304C4.82524 1.33203 6.83435 0.5 8.97119 0.5C11.108 0.5 13.1171 1.33203 14.6282 2.84304C16.1392 4.35405 16.9712 6.36288 16.9712 8.5C16.9712 10.6371 16.1392 12.646 14.6282 14.157C13.1171 15.668 11.1083 16.5 8.97119 16.5ZM8.97119 2.16962C7.28042 2.16962 5.69066 2.82801 4.49493 4.02374C3.2992 5.21947 2.64081 6.80895 2.64081 8.5C2.64081 10.1911 3.2992 11.7805 4.49493 12.9763C5.69066 14.172 7.28014 14.8304 8.97119 14.8304C10.6622 14.8304 12.2517 14.172 13.4475 12.9763C14.6432 11.7805 15.3016 10.1911 15.3016 8.5C15.3016 6.80895 14.6432 5.21947 13.4475 4.02374C12.2517 2.82801 10.6622 2.16962 8.97119 2.16962Z" fill="#005BFE"/>
<path d="M12.6252 9.33482H8.92783C8.46673 9.33482 8.09302 8.9611 8.09302 8.50001V3.63584C8.09302 3.17474 8.46673 2.80103 8.92783 2.80103C9.38892 2.80103 9.76264 3.17474 9.76264 3.63584V7.66492H12.6252C13.0863 7.66492 13.46 8.03863 13.46 8.49973C13.46 8.96082 13.0863 9.33454 12.6252 9.33454V9.33482Z" fill="#005BFE"/>
</svg>
