<svg width="25" height="24" viewBox="0 0 25 24" fill="none" xmlns="http://www.w3.org/2000/svg">
<path d="M20.2605 23.999H4.72417C2.39512 23.999 0.5 22.1063 0.5 19.7802V8.40294C0.5 6.84678 1.35347 5.42198 2.72633 4.68561L10.5257 0.504208C11.7987 -0.17847 13.3127 -0.166964 14.5751 0.532972L22.3274 4.83422C23.6696 5.57922 24.5029 6.99443 24.5 8.52854L24.4846 19.787C24.4818 22.1102 22.5866 24 20.2605 24V23.999ZM12.5235 2.30199C12.2115 2.30199 11.9005 2.37869 11.6153 2.53115L3.81597 6.7135C3.19195 7.04813 2.80409 7.69533 2.80409 8.40294V19.7802C2.80409 20.8378 3.66525 21.6979 4.72417 21.6979H20.2605C21.3175 21.6979 22.1786 20.8388 22.1805 19.7831L22.1959 8.52471C22.1969 7.82765 21.8186 7.18428 21.208 6.84582L13.4557 2.54457C13.1648 2.38349 12.8442 2.30199 12.5235 2.30199Z" fill="#005BFE"/>
</svg>
